<svg xmlns="http://www.w3.org/2000/svg" version="1.1" xmlns:xlink="http://www.w3.org/1999/xlink" xmlns:svgjs="http://svgjs.dev/svgjs" width="1000" height="750" viewBox="0 0 1000 750"><rect width="1000" height="750" fill="#fdfbe2"></rect><g transform="matrix(0.584,0,0,0.584,208,83.0004347027917)"><svg viewBox="0 0 280 280" data-background-color="#fdfbe2" preserveAspectRatio="xMidYMid meet" height="1000" width="1000" xmlns="http://www.w3.org/2000/svg" xmlns:xlink="http://www.w3.org/1999/xlink"><g id="tight-bounds" transform="matrix(1,0,0,1,0,-0.00020841914670199913)"><svg viewBox="0 0 280 280" height="280" width="280"><g><svg viewBox="0 0 280 280" height="280" width="280"><g transform="matrix(1,0,0,1,60.80404050710668,79.90216617498868)"><svg viewBox="0 0 158.39191898578665 120.19566765002264" height="120.19566765002264" width="158.39191898578665"><g><svg viewBox="0 0 158.39191898578665 120.19566765002264" height="120.19566765002264" width="158.39191898578665"><g><svg viewBox="0 0 158.39191898578665 120.19566765002264" height="120.19566765002264" width="158.39191898578665"><g id="textblocktransform"><svg viewBox="0 0 158.39191898578665 120.19566765002264" height="120.19566765002264" width="158.39191898578665" id="textblock"><g><svg viewBox="0 0 158.39191898578665 79.14722351782076" height="79.14722351782076" width="158.39191898578665"><g transform="matrix(1,0,0,1,0,0)"><svg width="158.39191898578665" viewBox="2.3499999046325684 -36.79999923706055 81.23999786376953 40.599998474121094" height="79.14722351782076" data-palette-color="#454545"><path d="M25.7 3.7L25.7 3.7Q25.6 3.75 25.5 3.75 25.4 3.75 25.1 3.75L25.1 3.75Q24.4 3.75 23.48 3.53 22.55 3.3 21.68 2.98 20.8 2.65 20.18 2.25 19.55 1.85 19.4 1.55L19.4 1.55Q19.35 0.85 19.35 0.1 19.35-0.65 19.35-1.35L19.35-1.35Q19.35-6.95 20.18-13.05 21-19.15 22.9-26.25L22.9-26.25Q23.1-26.95 23.33-28.03 23.55-29.1 23.8-30.35L23.8-30.35Q22.6-29.4 20.95-27.33 19.3-25.25 17.48-22.43 15.65-19.6 13.83-16.23 12-12.85 10.5-9.38 9-5.9 7.93-2.5 6.85 0.9 6.6 3.8L6.6 3.8Q4.2 3.1 3.28 2.4 2.35 1.7 2.35 0.7L2.35 0.7Q2.35-0.2 2.9-1.85 3.45-3.5 4.45-5.75 5.45-8 6.9-10.78 8.35-13.55 10.1-16.75L10.1-16.75Q12.1-20.4 14.03-23.6 15.95-26.8 17.8-29.4 19.65-32 21.43-33.9 23.2-35.8 24.95-36.8L24.95-36.8Q25.65-36.8 26.83-36.45 28-36.1 29.13-35.6 30.25-35.1 31.13-34.58 32-34.05 32.1-33.7L32.1-33.7Q31.4-32.3 30.45-29.5 29.5-26.7 28.53-23.15 27.55-19.6 26.68-15.63 25.8-11.65 25.3-8L25.3-8Q26.45-10.75 27.98-13.73 29.5-16.7 31.2-19.63 32.9-22.55 34.68-25.3 36.45-28.05 38.15-30.33 39.85-32.6 41.33-34.3 42.8-36 43.95-36.8L43.95-36.8Q44.65-36.8 45.83-36.45 47-36.1 48.13-35.6 49.25-35.1 50.13-34.58 51-34.05 51.1-33.7L51.1-33.7Q49.5-30.85 48.3-26.75 47.1-22.65 46.28-18.15 45.45-13.65 45.03-9.22 44.6-4.8 44.6-1.3L44.6-1.3Q44.6-0.15 44.6 1.1 44.6 2.35 44.7 3.7L44.7 3.7Q44 3.7 43.03 3.53 42.05 3.35 41.13 3.05 40.2 2.75 39.45 2.38 38.7 2 38.4 1.55L38.4 1.55Q38.35 0.85 38.35 0.1 38.35-0.65 38.35-1.35L38.35-1.35Q38.35-6.95 39.18-13.05 40-19.15 41.9-26.25L41.9-26.25Q42.1-26.95 42.35-28.15 42.6-29.35 42.85-30.65L42.85-30.65Q41.45-29.95 39.68-27.98 37.9-26 36.08-23.18 34.25-20.35 32.48-16.9 30.7-13.45 29.28-9.88 27.85-6.3 26.88-2.78 25.9 0.75 25.7 3.7ZM50.9-3.35L50.9-3.35Q50.9-3.8 50.97-4.48 51.05-5.15 51.25-6.28 51.45-7.4 51.77-9 52.1-10.6 52.6-12.85L52.6-12.85Q52.7-13.35 53.05-14.45 53.4-15.55 53.97-16.78 54.55-18 55.37-19.15 56.2-20.3 57.35-20.85L57.35-20.85Q58.2-20.65 59.6-19.83 61-19 62-17.55L62-17.55Q60.85-16.25 60.07-14.95 59.3-13.65 58.67-12.25 58.05-10.85 57.52-9.35 57-7.85 56.35-6.2L56.35-6.2Q55.8-4.8 55.35-3.33 54.9-1.85 54.85-0.75L54.85-0.75Q54.85 0.15 54.82 0.53 54.8 0.9 54.55 0.9L54.55 0.9Q54.35 0.9 53.75 0.65 53.15 0.4 52.52-0.13 51.9-0.65 51.4-1.45 50.9-2.25 50.9-3.35ZM60.45-25.05L60.45-25.05Q60.45-25.35 60.6-25.95L60.6-25.95Q60.35-26.2 60.17-26.7 60-27.2 60-27.6L60-27.6Q60-28.05 60.12-28.83 60.25-29.6 60.45-30.5 60.65-31.4 60.95-32.38 61.25-33.35 61.55-34.15L61.55-34.15Q62.15-34.15 63.02-33.83 63.9-33.5 64.8-32.98 65.7-32.45 66.45-31.83 67.2-31.2 67.6-30.65L67.6-30.65Q67.05-30.1 66.15-29.13 65.25-28.15 64.4-27.08 63.55-26 62.85-25.05 62.15-24.1 61.95-23.7L61.95-23.7Q61.35-23.8 60.9-24.23 60.45-24.65 60.45-25.05ZM79.9-20.2L79.9-20.2Q80.4-20.2 81.07-20.03 81.75-19.85 82.3-19.58 82.84-19.3 83.22-19 83.59-18.7 83.59-18.45L83.59-18.45Q82.59-16.35 81.75-14.23 80.9-12.1 80.3-10.15 79.7-8.2 79.37-6.5 79.05-4.8 79.05-3.55L79.05-3.55Q79.05-2.15 79.34-1.23 79.65-0.3 80.34 0.1L80.34 0.1Q79.75 0.5 78.8 0.75 77.84 1 77.09 1L77.09 1Q74.4 1 74.4-2.7L74.4-2.7Q74.4-5.55 76.3-10.5L76.3-10.5Q75.3-8.2 74-6.18 72.7-4.15 71.34-2.6 70-1.05 68.62-0.08 67.25 0.9 66.09 1.1L66.09 1.1Q64.25 1 63.09-0.68 61.95-2.35 61.95-4.95L61.95-4.95Q61.95-7.75 63.15-10.85 64.34-13.95 66.22-16.6 68.09-19.25 70.3-21.03 72.5-22.8 74.55-22.9L74.55-22.9Q75.05-22.75 75.67-22.3 76.3-21.85 76.87-21.25 77.45-20.65 77.84-20.03 78.25-19.4 78.3-18.95L78.3-18.95Q76.3-18.65 74.17-17 72.05-15.35 70.32-13.03 68.59-10.7 67.5-8.05 66.39-5.4 66.39-3.1L66.39-3.1Q66.39-2.15 67.09-1.9L67.09-1.9Q68.55-2.2 70.45-4.38 72.34-6.55 75.05-11.1L75.05-11.1Q75.55-12 76.17-13.1 76.8-14.2 77.45-15.4 78.09-16.6 78.72-17.82 79.34-19.05 79.9-20.2Z" opacity="1" transform="matrix(1,0,0,1,0,0)" fill="#454545" class="undefined-text-0" data-fill-palette-color="primary" id="text-0"></path></svg></g></svg></g><g transform="matrix(1,0,0,1,0,97.83198345701382)"><svg viewBox="0 0 158.39191898578665 22.363684193008822" height="22.363684193008822" width="158.39191898578665"><g transform="matrix(1,0,0,1,0,0)"><svg width="158.39191898578665" viewBox="1.0700000524520874 -35.790000915527344 257.6300048828125 36.380001068115234" height="22.363684193008822" data-palette-color="#454545"><path d="M28.91-19.38L28.91-19.38Q28.91-15.97 28.03-13.22 27.15-10.47 25.57-8.34 24-6.2 21.83-4.66 19.65-3.13 17.07-2.14 14.48-1.15 11.56-0.67 8.64-0.2 5.57-0.2L5.57-0.2Q4.42-0.2 3.32-0.26 2.22-0.32 1.07-0.44L1.07-0.44 1.76-33.2Q4.44-34.06 7.29-34.41 10.13-34.77 12.94-34.77L12.94-34.77Q16.43-34.77 19.36-33.72 22.29-32.67 24.41-30.69 26.54-28.71 27.72-25.85 28.91-23 28.91-19.38ZM18.9-17.48L18.9-17.82Q18.92-19.14 18.62-20.36 18.31-21.58 17.61-22.52 16.92-23.46 15.84-24.04 14.77-24.61 13.28-24.66L13.28-24.66 12.3-9.52Q13.77-9.74 14.97-10.49 16.16-11.23 17.03-12.32 17.9-13.4 18.37-14.73 18.85-16.06 18.9-17.48L18.9-17.48ZM57.61-19.73L57.61-19.73Q57.61-17.6 57.32-15.48L57.32-15.48Q53.15-15.21 49.02-14.61 44.89-14.01 40.77-13.43L40.77-13.43Q41.4-11.67 42.76-10.62 44.11-9.57 45.99-9.57L45.99-9.57Q46.97-9.57 48.13-9.94 49.29-10.3 50.44-10.85 51.58-11.4 52.63-12.04 53.68-12.67 54.44-13.18L54.44-13.18 53.27-2.1Q52.32-1.37 51.21-0.85 50.1-0.34 48.9-0.02 47.7 0.29 46.48 0.44 45.26 0.59 44.09 0.59L44.09 0.59Q41.67 0.59 39.67-0.07 37.67-0.73 36.04-1.92 34.42-3.1 33.2-4.71 31.98-6.32 31.17-8.23 30.37-10.13 29.95-12.26 29.54-14.38 29.54-16.55L29.54-16.55Q29.54-18.82 29.95-21.09 30.37-23.36 31.21-25.46 32.05-27.56 33.33-29.36 34.62-31.15 36.33-32.5 38.03-33.84 40.2-34.59 42.36-35.35 44.97-35.35L44.97-35.35Q47.14-35.35 48.94-34.75 50.73-34.16 52.13-33.09 53.54-32.03 54.58-30.57 55.61-29.1 56.28-27.36 56.96-25.61 57.29-23.67 57.61-21.73 57.61-19.73ZM47.85-20.46L47.85-21Q47.85-21.68 47.7-22.4 47.56-23.12 47.23-23.71 46.9-24.29 46.36-24.67 45.82-25.05 45.02-25.05L45.02-25.05Q44.04-25.05 43.3-24.52 42.55-24 42.01-23.21 41.48-22.41 41.14-21.48 40.79-20.56 40.62-19.78L40.62-19.78 47.85-20.46ZM77.41-34.96L88.64-34.23 79.71-1.22 67.6-0.54 56.61-32.42 68.18-33.5 72.87-14.94 77.41-34.96ZM115.4-19.73L115.4-19.73Q115.4-17.6 115.1-15.48L115.1-15.48Q110.93-15.21 106.8-14.61 102.68-14.01 98.55-13.43L98.55-13.43Q99.19-11.67 100.54-10.62 101.9-9.57 103.78-9.57L103.78-9.57Q104.75-9.57 105.91-9.94 107.07-10.3 108.22-10.85 109.37-11.4 110.42-12.04 111.47-12.67 112.22-13.18L112.22-13.18 111.05-2.1Q110.1-1.37 108.99-0.85 107.88-0.34 106.68-0.02 105.49 0.29 104.26 0.44 103.04 0.59 101.87 0.59L101.87 0.59Q99.46 0.59 97.45-0.07 95.45-0.73 93.83-1.92 92.2-3.1 90.98-4.71 89.76-6.32 88.96-8.23 88.15-10.13 87.74-12.26 87.32-14.38 87.32-16.55L87.32-16.55Q87.32-18.82 87.74-21.09 88.15-23.36 88.99-25.46 89.84-27.56 91.12-29.36 92.4-31.15 94.11-32.5 95.82-33.84 97.98-34.59 100.14-35.35 102.75-35.35L102.75-35.35Q104.92-35.35 106.72-34.75 108.51-34.16 109.92-33.09 111.32-32.03 112.36-30.57 113.4-29.1 114.07-27.36 114.74-25.61 115.07-23.67 115.4-21.73 115.4-19.73ZM105.63-20.46L105.63-21Q105.63-21.68 105.49-22.4 105.34-23.12 105.01-23.71 104.68-24.29 104.14-24.67 103.61-25.05 102.8-25.05L102.8-25.05Q101.82-25.05 101.08-24.52 100.33-24 99.8-23.21 99.26-22.41 98.92-21.48 98.58-20.56 98.41-19.78L98.41-19.78 105.63-20.46ZM128.48-12.94L138.39-12.94 137.37-2.1 116.81-0.49 117.59-35.35 130.29-35.35 128.48-12.94ZM169.71-18.7L169.71-18.7Q169.71-16.48 169.2-14.42 168.69-12.35 167.72-10.55 166.76-8.74 165.38-7.24 164-5.74 162.28-4.66 160.56-3.59 158.53-2.99 156.51-2.39 154.24-2.39L154.24-2.39Q152.04-2.39 150.05-2.95 148.06-3.52 146.33-4.53 144.59-5.54 143.19-6.97 141.78-8.4 140.8-10.14 139.81-11.89 139.26-13.89 138.71-15.89 138.71-18.07L138.71-18.07Q138.71-20.19 139.22-22.23 139.73-24.27 140.7-26.07 141.66-27.88 143.03-29.39 144.4-30.91 146.09-32.01 147.79-33.11 149.77-33.72 151.75-34.33 153.94-34.33L153.94-34.33Q157.48-34.33 160.4-33.23 163.32-32.13 165.38-30.09 167.44-28.05 168.58-25.16 169.71-22.27 169.71-18.7ZM158.87-18.07L158.87-18.07Q158.87-19.12 158.57-20.1 158.26-21.09 157.68-21.86 157.09-22.63 156.23-23.11 155.36-23.58 154.24-23.58L154.24-23.58Q153.09-23.58 152.18-23.17 151.28-22.75 150.63-22.03 149.99-21.31 149.65-20.35 149.3-19.38 149.3-18.31L149.3-18.31Q149.3-17.29 149.6-16.26 149.89-15.23 150.48-14.4 151.06-13.57 151.93-13.06 152.8-12.55 153.94-12.55L153.94-12.55Q155.09-12.55 156.01-13 156.92-13.45 157.56-14.22 158.19-14.99 158.53-15.99 158.87-16.99 158.87-18.07ZM199.86-22.51L199.86-22.51Q199.86-20.14 199.15-18.31 198.45-16.48 197.21-15.1 195.98-13.72 194.32-12.78 192.66-11.84 190.77-11.24 188.88-10.64 186.85-10.36 184.82-10.08 182.87-10.06L182.87-10.06 182.87 0.34 171.49 0.34Q171.49-2.44 171.51-5.08 171.52-7.71 171.53-10.31 171.54-12.92 171.55-15.55 171.57-18.19 171.59-21L171.59-21Q171.64-23.97 171.62-26.95 171.59-29.93 171.74-32.96L171.74-32.96Q174.86-33.89 177.99-34.35 181.11-34.81 184.43-34.81L184.43-34.81Q186.31-34.81 188.19-34.51 190.07-34.2 191.79-33.54 193.52-32.89 194.99-31.9 196.47-30.91 197.54-29.54 198.62-28.17 199.24-26.42 199.86-24.66 199.86-22.51ZM189.02-21.68L189.02-21.68Q189.02-23.27 188.06-24.16 187.09-25.05 185.56-25.05L185.56-25.05Q185.04-25.05 184.49-24.96 183.94-24.88 183.46-24.76L183.46-24.76 183.16-17.63Q183.51-17.58 183.82-17.58 184.14-17.58 184.48-17.58L184.48-17.58Q185.36-17.58 186.18-17.87 187-18.16 187.63-18.71 188.27-19.26 188.64-20.01 189.02-20.75 189.02-21.68ZM228.5-19.73L228.5-19.73Q228.5-17.6 228.21-15.48L228.21-15.48Q224.03-15.21 219.9-14.61 215.78-14.01 211.65-13.43L211.65-13.43Q212.29-11.67 213.64-10.62 215-9.57 216.88-9.57L216.88-9.57Q217.85-9.57 219.01-9.94 220.17-10.3 221.32-10.85 222.47-11.4 223.52-12.04 224.57-12.67 225.32-13.18L225.32-13.18 224.15-2.1Q223.2-1.37 222.09-0.85 220.98-0.34 219.78-0.02 218.59 0.29 217.37 0.44 216.14 0.59 214.97 0.59L214.97 0.59Q212.56 0.59 210.55-0.07 208.55-0.73 206.93-1.92 205.3-3.1 204.08-4.71 202.86-6.32 202.06-8.23 201.25-10.13 200.84-12.26 200.42-14.38 200.42-16.55L200.42-16.55Q200.42-18.82 200.84-21.09 201.25-23.36 202.09-25.46 202.94-27.56 204.22-29.36 205.5-31.15 207.21-32.5 208.92-33.84 211.08-34.59 213.24-35.35 215.85-35.35L215.85-35.35Q218.02-35.35 219.82-34.75 221.61-34.16 223.02-33.09 224.42-32.03 225.46-30.57 226.5-29.1 227.17-27.36 227.84-25.61 228.17-23.67 228.5-21.73 228.5-19.73ZM218.73-20.46L218.73-21Q218.73-21.68 218.59-22.4 218.44-23.12 218.11-23.71 217.78-24.29 217.24-24.67 216.71-25.05 215.9-25.05L215.9-25.05Q214.92-25.05 214.18-24.52 213.43-24 212.9-23.21 212.36-22.41 212.02-21.48 211.68-20.56 211.51-19.78L211.51-19.78 218.73-20.46ZM258.7-23.54L258.7-23.54Q258.7-21.63 258.37-20.08 258.04-18.53 257.33-17.24 256.62-15.94 255.5-14.84 254.37-13.75 252.79-12.74L252.79-12.74 258.6-2.39 247.61-0.24 243.85-10.64 240.82-10.55 240.39-0.39 229.89-0.39Q230.01-5.96 230.12-11.47 230.23-16.99 230.38-22.56L230.38-22.56Q230.42-25.37 230.47-28.13 230.52-30.88 230.67-33.69L230.67-33.69Q232.38-34.33 234.04-34.74 235.7-35.16 237.37-35.39 239.04-35.62 240.76-35.71 242.48-35.79 244.29-35.79L244.29-35.79Q247.07-35.79 249.67-35.02 252.27-34.25 254.28-32.71 256.28-31.18 257.49-28.88 258.7-26.59 258.7-23.54ZM247.76-22.75L247.76-22.75Q247.76-23.78 247.48-24.63 247.2-25.49 246.65-26.11 246.1-26.73 245.28-27.09 244.46-27.44 243.36-27.44L243.36-27.44Q242.88-27.44 242.41-27.38 241.95-27.32 241.51-27.2L241.51-27.2 241.12-18.12 241.7-18.12Q242.75-18.12 243.84-18.38 244.93-18.65 245.79-19.21 246.66-19.78 247.21-20.65 247.76-21.53 247.76-22.75Z" opacity="1" transform="matrix(1,0,0,1,0,0)" fill="#454545" class="undefined-text-1" data-fill-palette-color="secondary" id="text-1"></path></svg></g></svg></g></svg></g></svg></g><g></g></svg></g></svg></g><g><path d="M12.313 195.134V195.134C12.277 195.098 12.251 195.06 12.236 195.023 12.221 194.985 12.19 194.906 12.143 194.787V194.787C12.033 194.509 11.949 194.171 11.893 193.771 11.838 193.377 11.806 192.982 11.794 192.586 11.783 192.189 11.807 191.837 11.867 191.529 11.927 191.221 12.005 191.015 12.103 190.911V190.911C12.372 190.782 12.655 190.659 12.951 190.542 13.247 190.424 13.53 190.312 13.801 190.204V190.204C16.004 189.33 18.373 188.576 20.905 187.943 23.434 187.319 26.245 186.827 29.337 186.467V186.467C29.644 186.433 30.026 186.376 30.483 186.297 30.94 186.218 31.434 186.131 31.965 186.037V186.037C31.406 185.712 30.589 185.388 29.513 185.064 28.435 184.734 27.199 184.43 25.806 184.152 24.407 183.876 22.901 183.643 21.288 183.452 19.674 183.261 18.067 183.141 16.466 183.091 14.867 183.048 13.313 183.078 11.802 183.182 10.3 183.29 8.957 183.524 7.773 183.884V183.884C7.676 182.829 7.693 182.065 7.825 181.59 7.957 181.115 8.219 180.8 8.609 180.645V180.645C8.968 180.502 9.514 180.409 10.247 180.366 10.983 180.329 11.869 180.331 12.906 180.372 13.951 180.416 15.134 180.505 16.454 180.637 17.771 180.777 19.195 180.941 20.726 181.128V181.128C22.474 181.345 24.129 181.585 25.69 181.848 27.249 182.103 28.687 182.393 30.003 182.716 31.31 183.036 32.477 183.396 33.503 183.798 34.53 184.199 35.376 184.669 36.041 185.207V185.207C36.148 185.478 36.228 185.872 36.281 186.391 36.325 186.905 36.335 187.426 36.311 187.953 36.29 188.471 36.245 188.944 36.174 189.373 36.108 189.793 36.014 190.053 35.893 190.152V190.152C35.229 190.094 34.271 190.095 33.019 190.155 31.77 190.221 30.371 190.339 28.82 190.509 27.27 190.68 25.647 190.905 23.951 191.184 22.246 191.46 20.636 191.785 19.123 192.159V192.159C20.384 192.176 21.719 192.255 23.13 192.395 24.539 192.528 25.951 192.7 27.368 192.911 28.788 193.127 30.178 193.37 31.538 193.639 32.892 193.911 34.151 194.202 35.317 194.512 36.475 194.825 37.503 195.139 38.401 195.453 39.3 195.774 39.996 196.095 40.489 196.417V196.417C40.598 196.694 40.68 197.092 40.732 197.61 40.776 198.125 40.785 198.643 40.758 199.163 40.74 199.688 40.695 200.161 40.622 200.584 40.558 201.01 40.464 201.269 40.341 201.362V201.362C38.97 201.177 37.382 201.17 35.577 201.339 33.777 201.507 31.929 201.781 30.033 202.161 28.127 202.538 26.273 202.99 24.471 203.515 22.659 204.037 21.064 204.572 19.685 205.119V205.119C19.232 205.299 18.759 205.486 18.268 205.681 17.777 205.876 17.275 206.097 16.761 206.345V206.345C16.653 206.074 16.558 205.733 16.475 205.321 16.392 204.91 16.335 204.499 16.303 204.089 16.278 203.676 16.282 203.292 16.316 202.936 16.343 202.583 16.421 202.311 16.55 202.121V202.121C16.82 201.993 17.102 201.87 17.398 201.752 17.694 201.635 17.978 201.522 18.248 201.415V201.415C20.452 200.541 22.821 199.79 25.356 199.163 27.883 198.533 30.692 198.038 33.785 197.678V197.678C34.095 197.65 34.504 197.589 35.014 197.496 35.526 197.41 36.057 197.316 36.607 197.214V197.214C36.11 196.77 35.336 196.352 34.284 195.96 33.226 195.571 32.001 195.237 30.608 194.959 29.209 194.684 27.69 194.466 26.053 194.307 24.422 194.145 22.79 194.064 21.158 194.063 19.531 194.06 17.946 194.142 16.402 194.31 14.865 194.475 13.502 194.75 12.313 195.134ZM146.549 277.464V277.464C146.536 277.268 146.537 277.027 146.553 276.74 146.568 276.454 146.601 276.072 146.651 275.594 146.707 275.108 146.781 274.523 146.872 273.838 146.963 273.153 147.086 272.331 147.241 271.37V271.37C147.267 271.151 147.34 270.807 147.459 270.338 147.577 269.862 147.741 269.356 147.95 268.819 148.153 268.29 148.414 267.771 148.734 267.261 149.054 266.751 149.45 266.366 149.921 266.104V266.104C150.285 266.162 150.772 266.347 151.383 266.661 152 266.966 152.539 267.413 152.998 268.001V268.001C152.547 268.58 152.177 269.154 151.888 269.723 151.593 270.299 151.333 270.889 151.108 271.495 150.883 272.107 150.68 272.738 150.498 273.388 150.323 274.03 150.12 274.709 149.888 275.423V275.423C149.697 276.033 149.524 276.655 149.368 277.29 149.22 277.924 149.15 278.475 149.16 278.943V278.943C149.185 279.321 149.199 279.592 149.203 279.754 149.2 279.911 149.144 279.993 149.036 280V280C148.955 280.005 148.783 279.965 148.519 279.881 148.262 279.789 147.994 279.64 147.716 279.434 147.438 279.228 147.183 278.963 146.951 278.639 146.713 278.315 146.579 277.923 146.549 277.464ZM151.704 263.31V263.31C151.696 263.182 151.717 262.99 151.768 262.736V262.736C151.653 262.635 151.552 262.482 151.464 262.277 151.376 262.072 151.326 261.885 151.315 261.716V261.716C151.303 261.527 151.313 261.265 151.345 260.93 151.378 260.603 151.422 260.243 151.478 259.853 151.542 259.468 151.624 259.066 151.725 258.645 151.82 258.225 151.921 257.842 152.027 257.495V257.495C152.284 257.479 152.6 257.529 152.974 257.647 153.354 257.758 153.741 257.913 154.134 258.111 154.527 258.303 154.891 258.524 155.226 258.773 155.561 259.016 155.821 259.247 156.005 259.466V259.466C155.79 259.71 155.507 260.051 155.155 260.488 154.797 260.926 154.453 261.383 154.124 261.859 153.796 262.342 153.496 262.793 153.225 263.211 152.96 263.629 152.79 263.925 152.713 264.1V264.1C152.46 264.075 152.23 263.982 152.022 263.819 151.821 263.649 151.715 263.479 151.704 263.31ZM259.116 176.111V176.111C259.183 175.912 259.298 175.69 259.459 175.444 259.621 175.198 259.794 174.981 259.979 174.794 260.168 174.614 260.345 174.47 260.51 174.362 260.684 174.249 260.822 174.21 260.925 174.244V174.244C261.63 174.932 262.351 175.59 263.091 176.218 263.83 176.846 264.551 177.41 265.254 177.912 265.948 178.417 266.617 178.85 267.261 179.21 267.896 179.574 268.464 179.841 268.964 180.009V180.009C269.529 180.2 270.015 180.296 270.422 180.297 270.835 180.301 271.17 180.188 271.426 179.96V179.96C271.504 180.258 271.53 180.613 271.506 181.027 271.478 181.447 271.414 181.807 271.312 182.109V182.109C270.949 183.187 270.023 183.476 268.533 182.974V182.974C267.391 182.589 265.955 181.683 264.227 180.257V180.257C265.011 180.964 265.723 181.715 266.363 182.51 267.001 183.311 267.537 184.085 267.971 184.832 268.412 185.581 268.735 186.298 268.941 186.982 269.146 187.666 269.213 188.253 269.141 188.743V188.743C268.851 189.475 268.292 189.958 267.462 190.193 266.632 190.428 265.697 190.37 264.657 190.02V190.02C263.534 189.641 262.431 189.001 261.348 188.1 260.265 187.199 259.318 186.19 258.508 185.074 257.702 183.966 257.091 182.852 256.675 181.732 256.261 180.606 256.17 179.625 256.402 178.788V178.788C256.533 178.611 256.731 178.427 256.995 178.238 257.259 178.048 257.552 177.879 257.874 177.73 258.189 177.579 258.499 177.465 258.804 177.389 259.108 177.313 259.354 177.292 259.543 177.327V177.327C259.392 178.177 259.505 179.137 259.88 180.207 260.254 181.284 260.792 182.327 261.496 183.336 262.193 184.343 262.999 185.247 263.916 186.049 264.828 186.843 265.746 187.395 266.67 187.707V187.707C267.055 187.836 267.342 187.78 267.532 187.536V187.536C267.607 186.911 267.34 186.07 266.73 185.014 266.115 183.956 265.074 182.58 263.608 180.885V180.885C263.318 180.558 262.994 180.195 262.635 179.796 262.277 179.396 261.9 178.987 261.505 178.568 261.112 178.142 260.714 177.722 260.311 177.307 259.901 176.89 259.503 176.492 259.116 176.111Z" fill="#454545" data-fill-palette-color="accent"></path><path d="M33.849 97.267V97.267C33.858 97.315 33.854 97.361 33.836 97.405 33.818 97.449 33.782 97.536 33.728 97.668V97.668C33.604 97.969 33.41 98.299 33.145 98.659 32.886 99.021 32.607 99.36 32.308 99.677 32.013 100.002 31.723 100.264 31.437 100.461 31.157 100.661 30.938 100.765 30.781 100.774V100.774C30.47 100.675 30.151 100.559 29.826 100.425 29.5 100.291 29.187 100.162 28.886 100.038V100.038C26.468 99.044 24.014 97.826 21.523 96.384 19.033 94.942 16.424 93.181 13.698 91.1V91.1C13.428 90.886 13.081 90.634 12.659 90.343 12.234 90.059 11.774 89.752 11.279 89.424V89.424C11.475 90.105 11.877 90.988 12.485 92.074 13.087 93.156 13.834 94.342 14.724 95.631 15.621 96.923 16.637 98.264 17.772 99.653 18.91 101.037 20.093 102.362 21.323 103.629 22.561 104.893 23.821 106.059 25.102 107.128 26.375 108.201 27.616 109.048 28.825 109.67V109.67C28.099 110.58 27.503 111.174 27.038 111.451 26.566 111.725 26.114 111.774 25.682 111.596V111.596C25.293 111.436 24.791 111.091 24.175 110.559 23.565 110.03 22.86 109.348 22.06 108.514 21.267 107.682 20.401 106.707 19.462 105.589 18.523 104.47 17.517 103.247 16.445 101.92V101.92C15.219 100.412 14.085 98.957 13.044 97.555 12.008 96.155 11.091 94.822 10.293 93.556 9.499 92.299 8.85 91.117 8.347 90.009 7.84 88.907 7.527 87.888 7.406 86.953V86.953C7.53 86.652 7.771 86.279 8.13 85.833 8.489 85.388 8.879 84.966 9.299 84.567 9.711 84.172 10.111 83.832 10.5 83.545 10.88 83.262 11.154 83.129 11.322 83.147V83.147C11.8 83.695 12.562 84.426 13.607 85.339 14.646 86.25 15.844 87.229 17.199 88.278 18.562 89.329 20.024 90.395 21.586 91.477 23.151 92.567 24.676 93.543 26.161 94.402V94.402C25.181 93.42 24.18 92.335 23.161 91.147 22.147 89.961 21.162 88.739 20.207 87.482 19.243 86.229 18.323 84.975 17.447 83.721 16.58 82.464 15.806 81.266 15.123 80.129 14.441 78.992 13.862 77.951 13.386 77.008 12.916 76.068 12.61 75.279 12.469 74.643V74.643C12.593 74.342 12.834 73.969 13.193 73.523 13.552 73.078 13.942 72.656 14.362 72.257 14.776 71.856 15.176 71.515 15.562 71.235 15.942 70.952 16.217 70.819 16.385 70.837V70.837C17.33 72.031 18.581 73.253 20.14 74.502 21.699 75.751 23.376 76.953 25.172 78.109 26.973 79.268 28.792 80.33 30.628 81.298 32.464 82.265 34.137 83.06 35.646 83.681V83.681C36.147 83.887 36.667 84.101 37.206 84.322 37.745 84.544 38.315 84.752 38.915 84.948V84.948C38.789 85.255 38.602 85.603 38.354 85.992 38.106 86.381 37.834 86.748 37.538 87.095 37.248 87.445 36.955 87.746 36.661 87.998 36.364 88.257 36.092 88.412 35.843 88.464V88.464C35.535 88.359 35.218 88.239 34.892 88.105 34.566 87.971 34.253 87.843 33.952 87.719V87.719C31.534 86.724 29.08 85.506 26.589 84.065 24.099 82.623 21.491 80.862 18.765 78.781V78.781C18.491 78.574 18.121 78.308 17.654 77.984 17.178 77.663 16.679 77.334 16.159 76.996V76.996C16.213 77.721 16.51 78.645 17.052 79.768 17.589 80.883 18.306 82.086 19.203 83.378 20.1 84.67 21.134 86.003 22.304 87.378 23.479 88.762 24.713 90.079 26.008 91.329 27.303 92.579 28.624 93.731 29.971 94.783 31.32 95.828 32.613 96.657 33.849 97.267ZM146.299 20.989V20.989C146.314 20.78 146.35 20.518 146.407 20.203 146.463 19.894 146.557 19.48 146.69 18.96 146.822 18.446 146.989 17.82 147.192 17.081 147.401 16.349 147.658 15.467 147.963 14.437V14.437C148.027 14.204 148.159 13.836 148.358 13.335 148.557 12.84 148.812 12.315 149.123 11.76 149.434 11.212 149.802 10.681 150.226 10.169 150.643 9.662 151.131 9.3 151.69 9.082V9.082C152.075 9.205 152.581 9.482 153.209 9.915 153.83 10.347 154.349 10.917 154.766 11.626V11.626C154.189 12.189 153.7 12.762 153.298 13.344 152.889 13.926 152.516 14.53 152.179 15.158 151.841 15.793 151.526 16.449 151.232 17.127 150.939 17.812 150.612 18.526 150.253 19.267V19.267C149.949 19.904 149.668 20.56 149.409 21.234 149.15 21.901 148.989 22.49 148.925 23.002V23.002C148.895 23.421 148.87 23.718 148.85 23.893 148.824 24.068 148.754 24.151 148.639 24.143V24.143C148.544 24.136 148.359 24.065 148.084 23.929 147.815 23.795 147.544 23.592 147.272 23.321 146.999 23.057 146.758 22.73 146.548 22.342 146.345 21.954 146.262 21.503 146.299 20.989ZM154.07 6.299V6.299C154.08 6.164 154.129 5.957 154.217 5.678V5.678C154.11 5.555 154.025 5.376 153.96 5.14 153.896 4.898 153.871 4.686 153.884 4.503V4.503C153.899 4.294 153.947 4.009 154.027 3.648 154.113 3.294 154.219 2.911 154.344 2.499 154.462 2.08 154.609 1.649 154.783 1.206 154.958 0.764 155.126 0.362 155.288 0V0C155.572 0.02 155.911 0.12 156.306 0.297 156.7 0.482 157.101 0.711 157.509 0.985 157.91 1.258 158.273 1.553 158.596 1.868 158.927 2.184 159.177 2.477 159.348 2.747V2.747C159.073 2.986 158.709 3.316 158.258 3.739 157.806 4.168 157.363 4.618 156.928 5.089 156.493 5.561 156.098 6.004 155.742 6.42 155.386 6.842 155.154 7.145 155.045 7.327V7.327C154.772 7.26 154.538 7.117 154.343 6.9 154.147 6.689 154.056 6.489 154.07 6.299ZM268.148 106.132V106.132C268.225 106.356 268.276 106.629 268.301 106.95 268.328 107.278 268.323 107.584 268.285 107.869 268.247 108.155 268.189 108.4 268.109 108.607 268.039 108.818 267.946 108.943 267.831 108.983V108.983C266.756 108.859 265.684 108.774 264.615 108.727 263.543 108.674 262.533 108.664 261.584 108.697 260.634 108.724 259.756 108.798 258.952 108.918 258.154 109.035 257.48 109.189 256.929 109.379V109.379C256.308 109.593 255.815 109.835 255.449 110.104 255.092 110.378 254.877 110.7 254.804 111.069V111.069C254.54 110.866 254.278 110.573 254.017 110.19 253.764 109.811 253.581 109.456 253.466 109.123V109.123C253.055 107.932 253.666 107.054 255.299 106.491V106.491C256.56 106.056 258.428 105.881 260.9 105.967V105.967C259.736 105.874 258.607 105.694 257.511 105.427 256.418 105.166 255.425 104.853 254.533 104.488 253.642 104.129 252.878 103.722 252.242 103.268 251.603 102.808 251.15 102.337 250.884 101.856V101.856C250.648 101.027 250.814 100.231 251.383 99.469 251.942 98.703 252.795 98.122 253.941 97.727V97.727C255.177 97.301 256.572 97.117 258.126 97.176 259.679 97.234 261.185 97.475 262.641 97.896 264.098 98.318 265.385 98.881 266.502 99.585 267.619 100.289 268.356 101.084 268.712 101.972V101.972C268.725 102.218 268.68 102.513 268.576 102.857 268.473 103.201 268.334 103.546 268.16 103.893 267.977 104.235 267.779 104.543 267.565 104.818 267.35 105.086 267.147 105.267 266.957 105.361V105.361C266.518 104.523 265.771 103.76 264.716 103.071 263.67 102.385 262.5 101.839 261.207 101.433 259.919 101.024 258.606 100.779 257.266 100.697 255.926 100.614 254.751 100.747 253.739 101.096V101.096C253.316 101.242 253.103 101.488 253.101 101.832V101.832C253.456 102.426 254.259 102.977 255.509 103.485 256.758 103.992 258.595 104.498 261.019 105.002V105.002C261.491 105.082 262.015 105.178 262.59 105.287 263.172 105.395 263.778 105.501 264.409 105.606 265.04 105.711 265.671 105.808 266.304 105.898 266.944 105.985 267.558 106.063 268.148 106.132Z" fill="#454545" data-fill-palette-color="accent"></path><path d="M2.125 142.751C2.125 137.311 6.535 132.9 11.975 132.9 17.416 132.9 21.826 137.311 21.826 142.751 21.826 148.192 17.416 152.602 11.975 152.602 6.535 152.602 2.125 148.191 2.125 142.751ZM258.174 142.751C258.174 137.311 262.584 132.9 268.025 132.9 273.465 132.9 277.875 137.311 277.875 142.751 277.875 148.192 273.465 152.602 268.025 152.602 262.584 152.602 258.174 148.191 258.174 142.751Z" fill="#454545" data-fill-palette-color="accent"></path></g></svg></g><defs></defs></svg><rect width="280" height="280" fill="none" stroke="none" visibility="hidden"></rect></g></svg></g></svg>